<?xml version="1.0" encoding="UTF-8" standalone="no"?> <svg xmlns="http://www.w3.org/2000/svg" viewBox="0 0 32 32"><defs><style>.cls-1{fill:#ffb92c;}.cls-2{fill:#201a1a;}</style></defs><title>roasting</title><g id="roasting"><polygon class="cls-1" points="16 28 13 21 10 28 16 28"/><polygon class="cls-1" points="22 28 19 21 16 28 22 28"/><path class="cls-1" d="M26.19,6.63a5.79,5.79,0,0,0-1-.58L21.69,7.27a1,1,0,0,0-.61.93,2.93,2.93,0,0,1-1.92,2.88l-3.05,1a4.35,4.35,0,0,0,.77,1.06,4.57,4.57,0,0,0,3.29,1.31,5.8,5.8,0,0,0,4.45-1.7A6.23,6.23,0,0,0,26.19,6.63ZM24.81,8.36l-1.47.49a.69.69,0,0,0-.48.66,3.23,3.23,0,0,1-2.21,3.06l-.09,0h-.08a.25.25,0,0,1-.07-.49l.09,0a2.71,2.71,0,0,0,1.86-2.58,1.21,1.21,0,0,1,.82-1.14l1.47-.49a.25.25,0,0,1,.16.48Z"/><path class="cls-1" d="M9.74,9.43a.12.12,0,0,0,.15.05,2.14,2.14,0,0,1,2.68,1.34l1.07,3.51a4.52,4.52,0,0,0,1.49-1,5.3,5.3,0,0,0-.37-7.45,5.85,5.85,0,0,0-4.07-1.73,4.88,4.88,0,0,0-2.4.63Z"/><path class="cls-2" d="M23,29H9a1,1,0,0,1,0-2H23a1,1,0,0,1,0,2Z"/><path class="cls-2" d="M11.51,15.76a6.77,6.77,0,0,1-4.75-2,6.72,6.72,0,0,1-2-4.44A5.78,5.78,0,0,1,6.4,4.9,5.68,5.68,0,0,1,9,3.44a1,1,0,1,1,.5,1.93,3.64,3.64,0,0,0-1.66,1A3.77,3.77,0,0,0,6.75,9.2a4.73,4.73,0,0,0,1.42,3.13,4.65,4.65,0,0,0,4.14,1.35l-.86-3.21h0s-.08,0-.13,0A2.13,2.13,0,0,1,8.64,9.11L8.28,8.05a1,1,0,0,1,.64-1.27,1,1,0,0,1,1.26.64l.35,1.06a.12.12,0,0,0,.15.07,2.11,2.11,0,0,1,2.68,1.34l1.13,4.18a1,1,0,0,1-.56,1.17A5.79,5.79,0,0,1,11.51,15.76Z"/><path class="cls-2" d="M16.16,13.18a1,1,0,0,1-.64-.23,1.13,1.13,0,0,1-.24-.29,6.7,6.7,0,0,1,1.48-7.9c2.66-2.67,6.73-2.93,9.07-.59a5.27,5.27,0,0,1,1.11,1.61,1,1,0,0,1-1.83.81,3.36,3.36,0,0,0-.69-1c-1.56-1.56-4.36-1.29-6.25.59a5,5,0,0,0-1.46,4.73l2.6-1A1,1,0,0,0,20,9a3,3,0,0,1,2-2.81l.78-.26a1,1,0,0,1,1.27.63,1,1,0,0,1-.63,1.27l-.78.26A1,1,0,0,0,22,9a3,3,0,0,1-2,2.81l-3.46,1.31A1.13,1.13,0,0,1,16.16,13.18Z"/><path class="cls-2" d="M29,12a1,1,0,0,0-1,1v3a1,1,0,0,1-1,1H5a1,1,0,0,1-1-1V13a1,1,0,0,0-2,0v3a3,3,0,0,0,3,3v9a1,1,0,0,0,2,0V19H25v9a1,1,0,0,0,2,0V19a3,3,0,0,0,3-3V13A1,1,0,0,0,29,12Z"/></g></svg>