<svg width="40" height="40" viewBox="0 0 40 40" fill="none" xmlns="http://www.w3.org/2000/svg">
<path d="M35 0H5C3.67392 0 2.40215 0.526784 1.46447 1.46447C0.526784 2.40215 0 3.67392 0 5L0 35C0 36.3261 0.526784 37.5979 1.46447 38.5355C2.40215 39.4732 3.67392 40 5 40H35C36.3261 40 37.5979 39.4732 38.5355 38.5355C39.4732 37.5979 40 36.3261 40 35V5C40 3.67392 39.4732 2.40215 38.5355 1.46447C37.5979 0.526784 36.3261 0 35 0V0ZM2.5 9.6425C2.5 8.46 3.62 7.5 5 7.5H35C36.38 7.5 37.5 8.46 37.5 9.6425V35.3575C37.5 36.54 36.38 37.5 35 37.5H5C3.62 37.5 2.5 36.54 2.5 35.3575V9.6425Z" fill="black"/>
<path d="M16.25 17.5C16.913 17.5 17.5489 17.2366 18.0178 16.7678C18.4866 16.2989 18.75 15.663 18.75 15C18.75 14.337 18.4866 13.7011 18.0178 13.2322C17.5489 12.7634 16.913 12.5 16.25 12.5C15.587 12.5 14.9511 12.7634 14.4822 13.2322C14.0134 13.7011 13.75 14.337 13.75 15C13.75 15.663 14.0134 16.2989 14.4822 16.7678C14.9511 17.2366 15.587 17.5 16.25 17.5ZM23.75 17.5C24.413 17.5 25.0489 17.2366 25.5178 16.7678C25.9866 16.2989 26.25 15.663 26.25 15C26.25 14.337 25.9866 13.7011 25.5178 13.2322C25.0489 12.7634 24.413 12.5 23.75 12.5C23.087 12.5 22.4511 12.7634 21.9822 13.2322C21.5134 13.7011 21.25 14.337 21.25 15C21.25 15.663 21.5134 16.2989 21.9822 16.7678C22.4511 17.2366 23.087 17.5 23.75 17.5ZM31.25 17.5C31.913 17.5 32.5489 17.2366 33.0178 16.7678C33.4866 16.2989 33.75 15.663 33.75 15C33.75 14.337 33.4866 13.7011 33.0178 13.2322C32.5489 12.7634 31.913 12.5 31.25 12.5C30.587 12.5 29.9511 12.7634 29.4822 13.2322C29.0134 13.7011 28.75 14.337 28.75 15C28.75 15.663 29.0134 16.2989 29.4822 16.7678C29.9511 17.2366 30.587 17.5 31.25 17.5ZM8.75 25C9.41304 25 10.0489 24.7366 10.5178 24.2678C10.9866 23.7989 11.25 23.163 11.25 22.5C11.25 21.837 10.9866 21.2011 10.5178 20.7322C10.0489 20.2634 9.41304 20 8.75 20C8.08696 20 7.45107 20.2634 6.98223 20.7322C6.51339 21.2011 6.25 21.837 6.25 22.5C6.25 23.163 6.51339 23.7989 6.98223 24.2678C7.45107 24.7366 8.08696 25 8.75 25ZM16.25 25C16.913 25 17.5489 24.7366 18.0178 24.2678C18.4866 23.7989 18.75 23.163 18.75 22.5C18.75 21.837 18.4866 21.2011 18.0178 20.7322C17.5489 20.2634 16.913 20 16.25 20C15.587 20 14.9511 20.2634 14.4822 20.7322C14.0134 21.2011 13.75 21.837 13.75 22.5C13.75 23.163 14.0134 23.7989 14.4822 24.2678C14.9511 24.7366 15.587 25 16.25 25ZM23.75 25C24.413 25 25.0489 24.7366 25.5178 24.2678C25.9866 23.7989 26.25 23.163 26.25 22.5C26.25 21.837 25.9866 21.2011 25.5178 20.7322C25.0489 20.2634 24.413 20 23.75 20C23.087 20 22.4511 20.2634 21.9822 20.7322C21.5134 21.2011 21.25 21.837 21.25 22.5C21.25 23.163 21.5134 23.7989 21.9822 24.2678C22.4511 24.7366 23.087 25 23.75 25ZM31.25 25C31.913 25 32.5489 24.7366 33.0178 24.2678C33.4866 23.7989 33.75 23.163 33.75 22.5C33.75 21.837 33.4866 21.2011 33.0178 20.7322C32.5489 20.2634 31.913 20 31.25 20C30.587 20 29.9511 20.2634 29.4822 20.7322C29.0134 21.2011 28.75 21.837 28.75 22.5C28.75 23.163 29.0134 23.7989 29.4822 24.2678C29.9511 24.7366 30.587 25 31.25 25ZM8.75 32.5C9.41304 32.5 10.0489 32.2366 10.5178 31.7678C10.9866 31.2989 11.25 30.663 11.25 30C11.25 29.337 10.9866 28.7011 10.5178 28.2322C10.0489 27.7634 9.41304 27.5 8.75 27.5C8.08696 27.5 7.45107 27.7634 6.98223 28.2322C6.51339 28.7011 6.25 29.337 6.25 30C6.25 30.663 6.51339 31.2989 6.98223 31.7678C7.45107 32.2366 8.08696 32.5 8.75 32.5ZM16.25 32.5C16.913 32.5 17.5489 32.2366 18.0178 31.7678C18.4866 31.2989 18.75 30.663 18.75 30C18.75 29.337 18.4866 28.7011 18.0178 28.2322C17.5489 27.7634 16.913 27.5 16.25 27.5C15.587 27.5 14.9511 27.7634 14.4822 28.2322C14.0134 28.7011 13.75 29.337 13.75 30C13.75 30.663 14.0134 31.2989 14.4822 31.7678C14.9511 32.2366 15.587 32.5 16.25 32.5ZM23.75 32.5C24.413 32.5 25.0489 32.2366 25.5178 31.7678C25.9866 31.2989 26.25 30.663 26.25 30C26.25 29.337 25.9866 28.7011 25.5178 28.2322C25.0489 27.7634 24.413 27.5 23.75 27.5C23.087 27.5 22.4511 27.7634 21.9822 28.2322C21.5134 28.7011 21.25 29.337 21.25 30C21.25 30.663 21.5134 31.2989 21.9822 31.7678C22.4511 32.2366 23.087 32.5 23.75 32.5Z" fill="black"/>
</svg>
