<svg width="20" height="24" viewBox="0 0 20 24" fill="none" xmlns="http://www.w3.org/2000/svg">
<path d="M18 6H14.4V4.8C14.4 3.52696 13.8943 2.30606 12.9941 1.40589C12.0939 0.505713 10.873 0 9.6 0C8.32696 0 7.10606 0.505713 6.20589 1.40589C5.30571 2.30606 4.8 3.52696 4.8 4.8V6H1.2C0.88174 6 0.576516 6.12643 0.351472 6.35147C0.126428 6.57652 0 6.88174 0 7.2V20.4C0 21.3548 0.379285 22.2705 1.05442 22.9456C1.72955 23.6207 2.64522 24 3.6 24H15.6C16.5548 24 17.4705 23.6207 18.1456 22.9456C18.8207 22.2705 19.2 21.3548 19.2 20.4V7.2C19.2 6.88174 19.0736 6.57652 18.8485 6.35147C18.6235 6.12643 18.3183 6 18 6ZM7.2 4.8C7.2 4.16348 7.45286 3.55303 7.90294 3.10294C8.35303 2.65286 8.96348 2.4 9.6 2.4C10.2365 2.4 10.847 2.65286 11.2971 3.10294C11.7471 3.55303 12 4.16348 12 4.8V6H7.2V4.8ZM16.8 20.4C16.8 20.7183 16.6736 21.0235 16.4485 21.2485C16.2235 21.4736 15.9183 21.6 15.6 21.6H3.6C3.28174 21.6 2.97652 21.4736 2.75147 21.2485C2.52643 21.0235 2.4 20.7183 2.4 20.4V8.4H4.8V9.6C4.8 9.91826 4.92643 10.2235 5.15147 10.4485C5.37652 10.6736 5.68174 10.8 6 10.8C6.31826 10.8 6.62348 10.6736 6.84853 10.4485C7.07357 10.2235 7.2 9.91826 7.2 9.6V8.4H12V9.6C12 9.91826 12.1264 10.2235 12.3515 10.4485C12.5765 10.6736 12.8817 10.8 13.2 10.8C13.5183 10.8 13.8235 10.6736 14.0485 10.4485C14.2736 10.2235 14.4 9.91826 14.4 9.6V8.4H16.8V20.4Z" fill="#0B090A"/>
<path d="M9.65625 20.1562V11.1562" stroke="black" stroke-width="2" stroke-miterlimit="10"/>
<path d="M5.15625 15.6562H14.1562" stroke="black" stroke-width="2" stroke-miterlimit="10"/>
</svg>
