<?xml version="1.0" encoding="UTF-8" standalone="no"?> <svg xmlns="http://www.w3.org/2000/svg" viewBox="0 0 32 32"><defs><style>.cls-1{fill:#ffb92c;}.cls-2{fill:#201a1a;}</style></defs><title>best coffee</title><g id="best_coffee" data-name="best coffee"><path class="cls-1" d="M22.35,11.3a8.36,8.36,0,0,0-1.66-4.64L14.8,9.06A3,3,0,0,0,13,11.81v.38a5,5,0,0,1-3,4.6L4.92,18.86A9.08,9.08,0,0,0,5.84,20a8.36,8.36,0,0,0,5.95,2.38A10.65,10.65,0,0,0,19.2,19.2l.55-.6A4.93,4.93,0,0,1,19,16,5,5,0,0,1,22.35,11.3Zm-2.3-2-3.7,1.59a1.79,1.79,0,0,0-1.1,1.66V13a6.09,6.09,0,0,1-3.71,5.62l-1.39.6-.1,0a.25.25,0,0,1-.23-.15.25.25,0,0,1,.13-.33l1.4-.6A5.61,5.61,0,0,0,14.75,13v-.43a2.29,2.29,0,0,1,1.4-2.12l3.7-1.59a.25.25,0,0,1,.2.46Z"/><path class="cls-1" d="M24,13a3,3,0,1,0,3,3A3,3,0,0,0,24,13Zm0,1.25A1.76,1.76,0,0,0,22.25,16a.25.25,0,0,1-.5,0A2.25,2.25,0,0,1,24,13.75a.25.25,0,0,1,0,.5Z"/><path class="cls-2" d="M5.17,20.2a1,1,0,0,1-.8-.41,9.39,9.39,0,0,1-1.82-4.68A11.41,11.41,0,0,1,5.93,5.93c4.29-4.29,11-4.61,14.85-.71a9.28,9.28,0,0,1,1.85,2.66,1,1,0,0,1-1.82.84,6.84,6.84,0,0,0-1.45-2.08c-3.12-3.12-8.51-2.81-12,.7a9.45,9.45,0,0,0-2.81,7.55,7.64,7.64,0,0,0,1,3.06l4.64-2A3,3,0,0,0,12,13.19v-.38a5,5,0,0,1,3-4.6l2.53-1.08A1,1,0,0,1,18.34,9l-2.52,1.08A3,3,0,0,0,14,12.81v.38a5,5,0,0,1-3,4.6l-5.4,2.33A.92.92,0,0,1,5.17,20.2Z"/><path class="cls-2" d="M28.58,22.49a1,1,0,0,0-1.2-.76,1,1,0,0,0-.76,1.19l.9,4-3-1.81a1,1,0,0,0-1,0l-3,1.81,1.2-5.42a6,6,0,1,0-1.79-1.17L18,28.78a1,1,0,0,0,.4,1A.94.94,0,0,0,19,30a1,1,0,0,0,.51-.14L24,27.17l4.49,2.69a1,1,0,0,0,1.09-.05,1,1,0,0,0,.4-1ZM24,12a4,4,0,1,1-4,4A4,4,0,0,1,24,12Z"/></g></svg>