<svg width="20" height="20" viewBox="0 0 20 20" fill="none" xmlns="http://www.w3.org/2000/svg">
<path fill-rule="evenodd" clip-rule="evenodd" d="M10 0C4.47688 0 0 4.47688 0 10C0 15.5225 4.47688 20 10 20C15.5225 20 20 15.5231 20 10C20 4.47688 15.5225 0 10 0ZM10 18.75C5.1675 18.75 1.25 14.8325 1.25 10C1.25 5.1675 5.1675 1.25 10 1.25C14.8325 1.25 18.75 5.1675 18.75 10C18.75 14.8325 14.8325 18.75 10 18.75Z" fill="#121313" fill-opacity="0.5"/>
<path fill-rule="evenodd" clip-rule="evenodd" d="M14.2055 13.2943L10.913 10.0011L14.1868 6.75427C14.4337 6.50989 14.4337 6.11427 14.1868 5.87052C13.9405 5.62677 13.5405 5.62677 13.2943 5.87052L10.0249 9.11302L6.70678 5.79427C6.46053 5.54677 6.06053 5.54677 5.81428 5.79427C5.56803 6.04114 5.56803 6.44239 5.81428 6.68927L9.1274 10.003L5.79553 13.3074C5.54928 13.5518 5.54928 13.9474 5.79553 14.1911C6.04178 14.4355 6.44178 14.4355 6.68865 14.1911L10.0162 10.8911L13.3137 14.1886C13.5599 14.4361 13.9599 14.4361 14.2062 14.1886C14.4518 13.9424 14.4518 13.5418 14.2055 13.2943Z" fill="#121313" fill-opacity="0.5"/>
</svg>
