<?xml version="1.0" encoding="UTF-8" standalone="no"?> <svg xmlns="http://www.w3.org/2000/svg" viewBox="0 0 43.9 46.42"><defs><style>.cls-1{fill:none;stroke:#333;stroke-linecap:round;stroke-linejoin:round;stroke-width:2px;}</style></defs><title>Asset 5</title><g id="Layer_2" data-name="Layer 2"><g id="Layer_2-2" data-name="Layer 2"><path class="cls-1" d="M17,1h8.83a1,1,0,0,1,1,1V6.67a0,0,0,0,1,0,0H16a0,0,0,0,1,0,0V2A1,1,0,0,1,17,1Z"/><line class="cls-1" x1="13" y1="6.67" x2="30" y2="6.67"/><path class="cls-1" d="M26.86,7.38c0,3.84-2.42,7-5.41,7S16,11.22,16,7.38"/><path class="cls-1" d="M17,12.67H7a1,1,0,0,0-1,1v3a1,1,0,0,0,1,1h6v13a1,1,0,0,0,1,1h8"/><path class="cls-1" d="M25,12.67H36a1,1,0,0,1,1,1v3a1,1,0,0,1-1,1H30v13a1,1,0,0,1-1,1H22"/><polyline class="cls-1" points="1 16.67 6 15.54 1 13.67"/><polyline class="cls-1" points="42.9 16.67 37.9 15.54 42.9 13.67"/><rect class="cls-1" x="19.81" y="31.67" width="3.28" height="13.75"/></g></g></svg>