<?xml version="1.0" encoding="UTF-8" standalone="no"?> <svg xmlns="http://www.w3.org/2000/svg" viewBox="0 0 32 32"><defs><style>.cls-1{fill:#ffb92c;}.cls-2{fill:#201a1a;}</style></defs><title>fermentation</title><g id="fermentation"><path class="cls-1" d="M23.71,18.73a4.13,4.13,0,0,0-1.58-.32,4,4,0,0,0-1.79.42l-2,1a4,4,0,0,1-1.79.42A4.06,4.06,0,0,1,14,19.33L12.37,18a4,4,0,0,0-4.88-.18L3,21v6a2,2,0,0,0,2,2H27a2,2,0,0,0,2-2V21ZM12.08,25.58a2.38,2.38,0,0,1-1.67.66l-.29,0a3.31,3.31,0,0,1-2.84-2.84,2.28,2.28,0,0,1,2.6-2.6,3.16,3.16,0,0,1,1.9.94h0a3.16,3.16,0,0,1,.94,1.9A2.37,2.37,0,0,1,12.08,25.58Zm14.17-1c0,1.22-.38,2-2.25,2a.25.25,0,0,1-.25-.25A.25.25,0,0,1,24,26c1.63,0,1.75-.55,1.75-1.47V21.77a.25.25,0,1,1,.5,0Z"/><path class="cls-2" d="M27,30H5a3,3,0,0,1-3-3V14a1,1,0,0,1,2,0V27a1,1,0,0,0,1,1H27a1,1,0,0,0,1-1V14a1,1,0,0,1,2,0V27A3,3,0,0,1,27,30Z"/><path class="cls-2" d="M10.49,26.76a2.11,2.11,0,0,1-.35,0,3.95,3.95,0,0,1-3.38-3.38,2.72,2.72,0,0,1,3.1-3.1,3.81,3.81,0,0,1,2.26,1.12h0a3.81,3.81,0,0,1,1.12,2.26A2.83,2.83,0,0,1,12.47,26,2.8,2.8,0,0,1,10.49,26.76Zm-1-4.52a.75.75,0,0,0-.56.2.91.91,0,0,0-.2.7,2,2,0,0,0,1.62,1.62.91.91,0,0,0,.7-.2.91.91,0,0,0,.2-.7,2,2,0,0,0-.55-1.07h0a2,2,0,0,0-1.07-.55Z"/><path class="cls-2" d="M22.5,15.76a2.72,2.72,0,0,1-2-.79,2.8,2.8,0,0,1-.77-2.33,3.81,3.81,0,0,1,1.12-2.26A3.27,3.27,0,0,1,25.47,10a2.8,2.8,0,0,1,.77,2.33,3.81,3.81,0,0,1-1.12,2.26h0A3.76,3.76,0,0,1,22.5,15.76Zm1-4.52h-.14a2,2,0,0,0-1.62,1.62.87.87,0,0,0,.2.7.91.91,0,0,0,.7.2,2,2,0,0,0,1.07-.55h0a2,2,0,0,0,.55-1.07.87.87,0,0,0-.2-.7A.75.75,0,0,0,23.5,11.24Z"/><path class="cls-2" d="M12,14a6,6,0,1,1,6-6A6,6,0,0,1,12,14ZM12,4a4,4,0,1,0,4,4A4,4,0,0,0,12,4Z"/><path class="cls-2" d="M14,9H12a1,1,0,0,1-1-1V6a1,1,0,0,1,2,0V7h1a1,1,0,0,1,0,2Z"/></g></svg>