<svg width="71" height="41" viewBox="0 0 71 41" fill="none" xmlns="http://www.w3.org/2000/svg">
<path d="M2.55433 22.5726C22.636 23.5168 42.7611 22.8178 62.8377 23.6258C65.4009 23.7289 69.7132 23.9402 63.874 23.0275C52.1822 21.1998 40.342 20.3111 28.6162 18.7107C21.0192 17.6739 13.4581 16.2324 5.81993 15.5223C1.60414 15.1304 5.47917 15.0936 7.31277 15.0881C19.3519 15.0518 31.4303 15.3985 43.4465 16.1357C45.2179 16.2444 54.3018 17.2343 53.9433 17.2799C46.6004 18.2139 36.8771 18.9221 29.6616 16.9887C27.3229 16.362 34.4845 16.5345 36.9033 16.4264C42.9311 16.1568 48.916 16.1407 54.9462 16.339C55.9937 16.3734 68.01 16.6051 60.5768 17.4306C53.9069 18.1713 47.1078 18.0647 40.4211 17.6192C39.6246 17.5662 25.0718 16.1665 30.6388 15.8323" stroke="white" stroke-width="3" stroke-linecap="round"/>
</svg>
